<svg width="96" height="96" xmlns="http://www.w3.org/2000/svg" xmlns:xlink="http://www.w3.org/1999/xlink" overflow="hidden"><defs><clipPath id="clip0"><rect x="238" y="402" width="96" height="96"/></clipPath></defs><g clip-path="url(#clip0)" transform="translate(-238 -402)"><path d="M286 446C281 446 277 442 277 437 277 432 281 428 286 428 291 428 295 432 295 437 295 442 291 446 286 446ZM286 416C279.1 416 272.6 419.4 268.7 425.2 264.8 430.9 264 438.2 266.5 444.7L276 465.7 284.2 482.9C284.5 483.6 285.2 484 286 484 286.8 484 287.5 483.6 287.8 482.9L296 465.7 305.5 444.7C308 438.2 307.2 430.9 303.3 425.2 299.4 419.4 292.9 416 286 416Z" fill="#FF0000"/></g></svg>