<svg width="50" height="50" xmlns="http://www.w3.org/2000/svg" xmlns:xlink="http://www.w3.org/1999/xlink" overflow="hidden"><defs><clipPath id="clip0"><rect x="0" y="0" width="50" height="50"/></clipPath><clipPath id="clip1"><rect x="9" y="0" width="31" height="50"/></clipPath></defs><g clip-path="url(#clip0)"><g clip-path="url(#clip1)"><path d="M23.9896-0.00520767 23.875 0.197918 24.0521 0.244793 24.2188 0.380209 24.1719 0.734375 24.151 0.890626C24.151 0.890626 24.1458 0.927083 24.151 0.947918 24.1563 0.963542 24.1823 0.984375 24.1823 0.984375L24.4063 1.19792 24.4063 2.27083 24.5052 2.29688 24.5625 3 24.7188 3 24.7188 3.25521C24.4948 3.30208 24.3281 3.5 24.3281 3.73438 24.3281 3.91667 24.4271 4.07813 24.5729 4.16667L24.4531 4.16667 23.2656 12.1719 23.2656 12.7604 23.1354 12.7604 23.1354 12.1927 23.0104 12.1927 22.8229 11.2292C22.8594 11.2188 22.8854 11.1823 22.8854 11.1406 22.8854 11.0885 22.8385 11.0469 22.7813 11.0469 22.7292 11.0469 22.6823 11.0885 22.6823 11.1406 22.6823 11.1823 22.7083 11.2188 22.7448 11.2292L22.5573 12.1927 22.4375 12.1927 22.4375 12.8802 22.4896 12.8802 22.4896 15.8698 22.4115 15.8698 22.4115 15.4688 22.2656 15.4688 22.0469 14.224C22.099 14.2031 22.1302 14.1563 22.1302 14.099 22.1302 14.026 22.0729 13.9688 21.9948 13.9688 21.9219 13.9688 21.8594 14.026 21.8594 14.099 21.8594 14.1563 21.8958 14.2031 21.9427 14.224L21.724 15.4688 21.5781 15.4688 21.5781 16.2813 21.6615 16.2813 21.6615 18.8073 21.4792 18.8073 21.4792 18.2917 21.3125 18.2917 21.0521 16.9948C21.1042 16.974 21.1458 16.9271 21.1458 16.8698 21.1458 16.7969 21.0781 16.7344 21 16.7344 20.9219 16.7344 20.8594 16.7969 20.8594 16.8698 20.8594 16.9271 20.8958 16.974 20.9479 16.9948L20.6927 18.2917 20.5208 18.2917 20.5208 19.2604 20.6146 19.2604 20.6146 27.1563 19.7604 27.1563 19.7604 26.6771 18.9844 26.6771 18.9844 27.4583 18.3698 27.4583 18.3698 27.026 17.5938 27.026 17.5938 27.7604 16.7396 27.7604 16.7396 20.5313 16.8177 20.5313 16.8177 19.7448 16.6823 19.7448 16.474 18.7031C16.5156 18.6875 16.5417 18.6458 16.5417 18.6042 16.5417 18.5417 16.4948 18.4896 16.4323 18.4896 16.3646 18.4896 16.3177 18.5417 16.3177 18.6042 16.3177 18.6458 16.349 18.6875 16.3854 18.7031L16.1771 19.7448 16.0417 19.7448 16.0417 20.1667 15.8958 20.1667 15.8958 18.125 15.9635 18.125 15.9635 17.4688 15.8437 17.4688 15.6667 16.4583C15.7083 16.4427 15.7396 16.4063 15.7396 16.3594 15.7396 16.3021 15.6875 16.2552 15.625 16.2552 15.5677 16.2552 15.5156 16.3021 15.5156 16.3594 15.5156 16.4063 15.5469 16.4427 15.5833 16.4583L15.4115 17.4688 15.2865 17.4688 15.2865 17.7865 15.2292 17.7865 15.2292 15.375 15.2708 15.375 15.2708 14.8229 15.1719 14.8229 15.0208 14.0469C15.0469 14.0313 15.0729 14.0052 15.0729 13.974 15.0729 13.9271 15.0365 13.8958 14.9896 13.8958 14.9427 13.8958 14.9063 13.9271 14.9063 13.974 14.9063 14.0052 14.9323 14.0313 14.9583 14.0469L14.8073 14.8229 14.7083 14.8229 14.7083 15.276 14.5937 15.276 14.5937 14.8021 13.6406 8.32813 13.5365 8.32813C13.651 8.26563 13.7292 8.14583 13.7292 8.01042 13.7292 7.83333 13.599 7.67708 13.4219 7.64063L13.4219 7.29167C13.5 7.26042 13.5573 7.1875 13.5573 7.09896 13.5573 7.01042 13.5 6.9375 13.4219 6.90625L13.4219 6.57813 13.2604 6.57813 13.2604 6.90625C13.1823 6.9375 13.125 7.01042 13.125 7.09896 13.125 7.1875 13.1823 7.26042 13.2604 7.29167L13.2604 7.64063C13.0833 7.67708 12.9531 7.83333 12.9531 8.01042 12.9531 8.14583 13.0313 8.26563 13.1406 8.32813L13.0365 8.32813 12.0833 14.8021 12.0833 15.276 11.974 15.276 11.974 14.8229 11.875 14.8229 11.724 14.0469C11.75 14.0313 11.7708 14.0052 11.7708 13.974 11.7708 13.9271 11.7344 13.8958 11.6875 13.8958 11.6458 13.8958 11.6094 13.9271 11.6094 13.974 11.6094 14.0052 11.6302 14.0313 11.6615 14.0469L11.5052 14.8229 11.4115 14.8229 11.4115 15.375 11.4531 15.375 11.4531 17.7865 11.3906 17.7865 11.3906 17.4688 11.2708 17.4688 11.0937 16.4583C11.1354 16.4427 11.1667 16.4063 11.1667 16.3594 11.1667 16.3021 11.1146 16.2552 11.0573 16.2552 10.9948 16.2552 10.9427 16.3021 10.9427 16.3594 10.9427 16.4063 10.974 16.4427 11.0156 16.4583L10.8385 17.4688 10.7187 17.4688 10.7187 18.125 10.7813 18.125 10.7813 20.1667 10.6354 20.1667 10.6354 19.7448 10.5 19.7448 10.2969 18.7031C10.3333 18.6875 10.3646 18.6458 10.3646 18.6042 10.3646 18.5417 10.3125 18.4896 10.25 18.4896 10.1875 18.4896 10.1354 18.5417 10.1354 18.6042 10.1354 18.6458 10.1667 18.6875 10.2083 18.7031L10 19.7448 9.86458 19.7448 9.86458 20.5313 9.9375 20.5313 9.9375 49.9948 39.7083 49.9948 39.7083 20.5313 39.7813 20.5313 39.7813 19.7448 39.6458 19.7448 39.4375 18.7031C39.4792 18.6875 39.5104 18.6458 39.5104 18.6042 39.5104 18.5417 39.4583 18.4896 39.3958 18.4896 39.3333 18.4896 39.2813 18.5417 39.2813 18.6042 39.2813 18.6458 39.3125 18.6875 39.3542 18.7031L39.1458 19.7448 39.0104 19.7448 39.0104 20.1667 38.8646 20.1667 38.8646 18.125 38.9271 18.125 38.9271 17.4688 38.8073 17.4688 38.6354 16.4583C38.6719 16.4427 38.7031 16.4063 38.7031 16.3594 38.7031 16.3021 38.6563 16.2552 38.5938 16.2552 38.5313 16.2552 38.4844 16.3021 38.4844 16.3594 38.4844 16.4063 38.5104 16.4427 38.5521 16.4583L38.375 17.4688 38.2552 17.4688 38.2552 17.7865 38.1927 17.7865 38.1927 15.375 38.2396 15.375 38.2396 14.8229 38.1406 14.8229 37.9844 14.0469C38.0156 14.0313 38.0365 14.0052 38.0365 13.974 38.0365 13.9271 38 13.8958 37.9583 13.8958 37.9115 13.8958 37.875 13.9271 37.875 13.974 37.875 14.0052 37.901 14.0313 37.9271 14.0469L37.7708 14.8229 37.6719 14.8229 37.6719 15.276 37.5625 15.276 37.5625 14.8021 36.6094 8.32813 36.5052 8.32813C36.6146 8.26563 36.6927 8.14583 36.6927 8.01042 36.6927 7.83333 36.5625 7.67708 36.3906 7.64063L36.3906 7.29167C36.4688 7.26042 36.5208 7.1875 36.5208 7.09896 36.5208 7.01042 36.4688 6.9375 36.3906 6.90625L36.3906 6.57813 36.2292 6.57813 36.2292 6.90625C36.1458 6.9375 36.0885 7.01042 36.0885 7.09896 36.0885 7.1875 36.1458 7.26042 36.2292 7.29167L36.2292 7.64063C36.0521 7.67708 35.9167 7.83333 35.9167 8.01042 35.9167 8.14583 35.9948 8.26563 36.1094 8.32813L36.0052 8.32813 35.0521 14.8021 35.0521 15.276 34.9375 15.276 34.9375 14.8229 34.8438 14.8229 34.6875 14.0469C34.7188 14.0313 34.7396 14.0052 34.7396 13.974 34.7396 13.9271 34.7031 13.8958 34.6563 13.8958 34.6146 13.8958 34.5781 13.9271 34.5781 13.974 34.5781 14.0052 34.599 14.0313 34.625 14.0469L34.474 14.8229 34.375 14.8229 34.375 15.375 34.4167 15.375 34.4167 17.7865 34.3594 17.7865 34.3594 17.4688 34.2396 17.4688 34.0625 16.4583C34.099 16.4427 34.1354 16.4063 34.1354 16.3594 34.1354 16.3021 34.0833 16.2552 34.0208 16.2552 33.9635 16.2552 33.9115 16.3021 33.9115 16.3594 33.9115 16.4063 33.9375 16.4427 33.9792 16.4583L33.8073 17.4688 33.6823 17.4688 33.6823 18.125 33.75 18.125 33.75 20.1667 33.6042 20.1667 33.6042 19.7448 33.4688 19.7448 33.2604 18.7031C33.3021 18.6875 33.3333 18.6458 33.3333 18.6042 33.3333 18.5417 33.2813 18.4896 33.2188 18.4896 33.151 18.4896 33.1042 18.5417 33.1042 18.6042 33.1042 18.6458 33.1302 18.6875 33.1719 18.7031L32.9635 19.7448 32.8333 19.7448 32.8333 20.5313 32.9063 20.5313 32.9063 27.7604 32.0573 27.7604 32.0573 27.026 31.276 27.026 31.276 27.4583 30.6615 27.4583 30.6615 26.6771 29.8854 26.6771 29.8854 27.1563 29.0313 27.1563 29.0313 19.2604 29.125 19.2604 29.125 18.2917 28.9531 18.2917 28.6979 16.9948C28.75 16.974 28.7865 16.9271 28.7865 16.8698 28.7865 16.7969 28.724 16.7344 28.6458 16.7344 28.5677 16.7344 28.5052 16.7969 28.5052 16.8698 28.5052 16.9271 28.5417 16.974 28.5938 16.9948L28.3385 18.2917 28.1719 18.2917 28.1719 18.8073 27.9844 18.8073 27.9844 16.2813 28.0677 16.2813 28.0677 15.4688 27.9219 15.4688 27.7031 14.224C27.75 14.2031 27.7865 14.1563 27.7865 14.099 27.7865 14.026 27.724 13.9688 27.651 13.9688 27.5729 13.9688 27.5156 14.026 27.5156 14.099 27.5156 14.1563 27.5521 14.2031 27.599 14.224L27.3854 15.4688 27.2396 15.4688 27.2396 15.8698 27.1563 15.8698 27.1563 12.8802 27.2135 12.8802 27.2135 12.1927 27.0885 12.1927 26.901 11.2292C26.9375 11.2188 26.9635 11.1823 26.9635 11.1406 26.9635 11.0885 26.9167 11.0469 26.8646 11.0469 26.8073 11.0469 26.7604 11.0885 26.7604 11.1406 26.7604 11.1823 26.7917 11.2188 26.8281 11.2292L26.6354 12.1927 26.5156 12.1927 26.5156 12.7604 26.3802 12.7604 26.3802 12.1719 25.1979 4.16667 25.0729 4.16667C25.2188 4.07813 25.3177 3.91667 25.3177 3.73438 25.3177 3.5 25.151 3.30208 24.9271 3.25521L24.9271 2.96875 25.0469 2.88021 25.0469 2.32292 25.1406 2.26563 25.1354 1.5 25.4115 2.08854C25.4115 2.08854 25.4427 2.03646 25.4531 2.01042 25.4635 1.96875 25.4427 1.89583 25.4427 1.89583L25.2188 1.17188 25.1823 1.09896 25.1354 1.06771 24.9583 1.06771C24.9583 1.06771 24.9583 0.84375 24.9375 0.734375 24.9323 0.697918 24.9063 0.625001 24.9063 0.625001 24.9063 0.625001 24.8802 0.562501 24.8594 0.541667 24.8281 0.520834 24.7865 0.520834 24.75 0.520834 24.7135 0.515626 24.6823 0.515626 24.651 0.536459 24.6354 0.552083 24.6094 0.588542 24.6094 0.588542L24.599 0.640626 24.1094 0.182293ZM24.9948 22.9635C25.5365 22.9635 25.974 23.4115 25.974 23.9583L25.974 28.2813 24.0104 28.2813 24.0104 23.9792C24.0104 23.974 24.0104 23.9688 24.0104 23.9583 24.0104 23.4115 24.4531 22.9635 24.9948 22.9635ZM12.724 25.5156C13.1354 25.5156 13.4635 25.8542 13.4635 26.2708L13.4635 28.5417 11.9792 28.5417 11.9792 26.2708C11.9792 25.8542 12.3125 25.5156 12.724 25.5156ZM36.9271 25.5156C37.3333 25.5156 37.6667 25.8542 37.6667 26.2708L37.6667 28.5417 36.1823 28.5417 36.1823 26.2708C36.1823 25.8542 36.5156 25.5156 36.9271 25.5156ZM24.9948 30.3073C25.5365 30.3073 25.974 30.7552 25.974 31.3021L25.974 37.7031 24.0104 37.7031 24.0104 31.3229C24.0104 31.3177 24.0104 31.3073 24.0104 31.3021 24.0104 30.7552 24.4479 30.3073 24.9948 30.3073ZM12.724 30.4531C13.1302 30.4531 13.4635 30.7865 13.4635 31.2031L13.4635 33.474 11.9792 33.474 11.9792 31.2031C11.9792 30.7865 12.3125 30.4531 12.724 30.4531ZM36.9219 30.4531C37.3333 30.4531 37.6667 30.7865 37.6667 31.2031L37.6667 33.474 36.1771 33.474 36.1771 31.2031C36.1771 30.7865 36.5156 30.4531 36.9219 30.4531ZM18.651 30.776C19.1406 30.776 19.5313 31.2083 19.5313 31.7448 19.5313 32.276 19.1406 32.7083 18.651 32.7083 18.1667 32.7083 17.7656 32.276 17.7656 31.7448 17.7656 31.2083 18.1667 30.776 18.651 30.776ZM30.9896 30.776C31.4792 30.776 31.875 31.2083 31.875 31.7448 31.875 32.276 31.4792 32.7083 30.9896 32.7083 30.5052 32.7083 30.1094 32.276 30.1094 31.7448 30.1094 31.2083 30.5052 30.776 30.9896 30.776ZM12.724 34.7917C13.1302 34.7917 13.4635 35.125 13.4635 35.5417L13.4635 37.9323 11.9792 37.9323 11.9792 35.5417C11.9792 35.125 12.3125 34.7917 12.724 34.7917ZM18.651 34.7917C19.0625 34.7917 19.3958 35.125 19.3958 35.5417L19.3958 37.9323 17.9063 37.9323 17.9063 35.5573 17.9115 35.5573C17.9115 35.5521 17.9063 35.5469 17.9063 35.5417 17.9063 35.125 18.2396 34.7917 18.651 34.7917ZM30.9896 34.7917C31.401 34.7917 31.7344 35.125 31.7344 35.5417 31.7344 35.5469 31.7292 35.5521 31.7292 35.5573L31.7344 35.5573 31.7344 37.9323 30.25 37.9323 30.25 35.5417C30.25 35.125 30.5781 34.7917 30.9896 34.7917ZM36.9219 34.7917C37.3333 34.7917 37.6667 35.125 37.6667 35.5417L37.6667 37.9323 36.1771 37.9323 36.1771 35.5417C36.1771 35.125 36.5156 34.7917 36.9219 34.7917ZM12.724 39.5052C13.1302 39.5052 13.4635 39.8438 13.4635 40.2604L13.4635 42.776 11.9792 42.776 11.9792 40.2604C11.9792 39.8438 12.3125 39.5052 12.724 39.5052ZM36.9219 39.5052C37.3333 39.5052 37.6667 39.8438 37.6667 40.2604L37.6667 42.776 36.1771 42.776 36.1771 40.2604C36.1771 39.8438 36.5156 39.5052 36.9219 39.5052ZM18.651 39.7969C19.1406 39.7969 19.5313 40.2292 19.5313 40.7604 19.5313 41.2917 19.1406 41.724 18.651 41.724 18.1667 41.724 17.7656 41.2917 17.7656 40.7604 17.7656 40.2292 18.1667 39.7969 18.651 39.7969ZM30.9896 39.7969C31.4792 39.7969 31.875 40.2292 31.875 40.7604 31.875 41.2917 31.4792 41.724 30.9896 41.724 30.5052 41.724 30.1094 41.2917 30.1094 40.7604 30.1094 40.2292 30.5052 39.7969 30.9896 39.7969ZM24.9896 40.0104C25.5365 40.0104 25.974 40.4531 25.974 41.0052L25.974 47.4063 24.0104 47.4063 24.0104 41.026C24.0104 41.0208 24.0104 41.0104 24.0104 41.0052 24.0104 40.4531 24.4479 40.0104 24.9896 40.0104ZM18.5677 43.3333C19.2083 43.3333 19.724 43.8542 19.724 44.5 19.724 44.5052 19.724 44.5104 19.724 44.5156L19.724 47.4063 17.4115 47.4063 17.4115 44.5156C17.4115 44.5104 17.4115 44.5052 17.4115 44.5 17.4115 43.8542 17.9271 43.3333 18.5677 43.3333ZM31.0781 43.3333C31.7188 43.3333 32.2344 43.8542 32.2344 44.5 32.2344 44.5052 32.2344 44.5104 32.2344 44.5156L32.2344 47.4063 29.9219 47.4063 29.9219 44.5156C29.9219 44.5104 29.9219 44.5052 29.9219 44.5 29.9219 43.8542 30.4375 43.3333 31.0781 43.3333ZM12.724 44.1354C13.1302 44.1354 13.4635 44.474 13.4635 44.8854L13.4635 47.4063 11.9792 47.4063 11.9792 44.8854C11.9792 44.474 12.3125 44.1354 12.724 44.1354ZM36.9219 44.1354C37.3333 44.1354 37.6667 44.474 37.6667 44.8854L37.6667 47.4063 36.1771 47.4063 36.1771 44.8854C36.1771 44.474 36.5104 44.1354 36.9219 44.1354Z" fill="#A5AFD5"/></g></g></svg>