<?xml version="1.0" standalone="no"?>
<!DOCTYPE svg PUBLIC "-//W3C//DTD SVG 20010904//EN"
 "http://www.w3.org/TR/2001/REC-SVG-20010904/DTD/svg10.dtd">
<svg version="1.0" xmlns="http://www.w3.org/2000/svg"
 width="72.000000pt" height="64.000000pt" viewBox="0 0 72.000000 64.000000"
 preserveAspectRatio="xMidYMid meet">

<g transform="translate(0.000000,64.000000) scale(0.100000,-0.100000)"
fill="#000000" stroke="none">
<path d="M367 613 c-9 -8 -9 -68 -1 -76 12 -12 34 6 34 28 0 43 -16 66 -33 48z"/>
<path d="M227 574 c-6 -7 23 -74 32 -74 3 0 12 4 19 9 10 6 9 14 -5 39 -17 30
-33 39 -46 26z"/>
<path d="M484 549 c-12 -23 -13 -34 -4 -43 8 -8 16 -5 30 14 11 14 20 33 20
43 0 28 -28 19 -46 -14z"/>
<path d="M320 479 c-113 -45 -136 -211 -37 -281 38 -28 112 -35 158 -15 49 20
90 77 96 130 12 111 -113 207 -217 166z"/>
<path d="M126 472 c-10 -16 34 -52 63 -52 20 0 11 28 -14 44 -27 18 -41 20
-49 8z"/>
<path d="M578 464 c-29 -15 -35 -28 -18 -39 14 -9 70 23 70 40 0 19 -17 18
-52 -1z"/>
<path d="M102 342 c-6 -2 -12 -10 -12 -18 0 -10 12 -14 41 -14 33 0 40 3 37
17 -3 16 -38 25 -66 15z"/>
<path d="M590 330 c0 -16 7 -20 34 -20 32 0 55 14 43 26 -2 2 -21 7 -41 9 -31
4 -36 2 -36 -15z"/>
<path d="M152 220 c-34 -21 -40 -35 -19 -43 18 -6 67 21 67 38 0 23 -15 25
-48 5z"/>
<path d="M556 224 c-8 -20 -10 -17 31 -38 43 -22 56 -1 19 31 -32 27 -42 29
-50 7z"/>
<path d="M237 121 c-21 -35 -21 -37 -3 -44 16 -6 59 51 50 65 -10 16 -30 7
-47 -21z"/>
<path d="M475 141 c-7 -13 15 -59 32 -65 22 -9 26 20 8 48 -18 27 -30 32 -40
17z"/>
<path d="M360 79 c0 -33 3 -40 18 -37 12 2 18 14 20 41 3 32 0 37 -17 37 -18
0 -21 -6 -21 -41z"/>
</g>
</svg>
